PathFileType	4	(X/Y/Z)	E:\Marcel_BSc\Ayumi_22_01_2025\22-01-2025\sumo_dl_3.trc
DataRate	CameraRate	NumFrames	NumMarkers	Units	OrigDataRate	OrigDataStartFrame	OrigNumFrames
200.0	200.0	7	47	mm	200.0	1461	2336	
Frame#	Time	FHD			LBHD			RBHD			RBAR			LBAR			RSACR			LSACR			USACR			C7			CLAV			T10			RSHO			LSHO			LTHI1			LTHI3			LTHI2			LTIB1			LTIB2			LTIB3			LMMAL			LLMAL			LHEE			LMT1			LMT5			LMT3			RTHI1			RTHI2			RTHI3			RTIB1			RTIB3			RTIB2			RLMAL			RMMAL			RHEE			RMT5			RMT1			RMT3			LDUPA			LMUPA			LUUPA			LRAD			RUL			RUFIN			RRAD			RMUPA			RDUPA			RUUPA			
		X1	Y1	Z1	X2	Y2	Z2	X3	Y3	Z3	X4	Y4	Z4	X5	Y5	Z5	X6	Y6	Z6	X7	Y7	Z7	X8	Y8	Z8	X9	Y9	Z9	X10	Y10	Z10	X11	Y11	Z11	X12	Y12	Z12	X13	Y13	Z13	X14	Y14	Z14	X15	Y15	Z15	X16	Y16	Z16	X17	Y17	Z17	X18	Y18	Z18	X19	Y19	Z19	X20	Y20	Z20	X21	Y21	Z21	X22	Y22	Z22	X23	Y23	Z23	X24	Y24	Z24	X25	Y25	Z25	X26	Y26	Z26	X27	Y27	Z27	X28	Y28	Z28	X29	Y29	Z29	X30	Y30	Z30	X31	Y31	Z31	X32	Y32	Z32	X33	Y33	Z33	X34	Y34	Z34	X35	Y35	Z35	X36	Y36	Z36	X37	Y37	Z37	X38	Y38	Z38	X39	Y39	Z39	X40	Y40	Z40	X41	Y41	Z41	X42	Y42	Z42	X43	Y43	Z43	X44	Y44	Z44	X45	Y45	Z45	X46	Y46	Z46	X47	Y47	Z47	
1461	7.295	70.346375	1444.8564	-987.18616	90.53183	1430.6962	-926.6228	109.28445	1417.5297	-1057.3087	224.005	573.53021	-2100.4956	280.95691	569.38629	121.02937	483.35583	868.58655	-1040.9685	485.29587	867.104	-968.44135	477.22345	878.92181	-1003.6588	284.53015	1268.3583	-987.0722	177.82101	1149.2087	-986.81097	419.79929	1032.2345	-1002.5735	172.28485	1168.5154	-1144.9237	215.3622	1174.3851	-817.79089	394.07486	570.10883	-717.72552	385.04013	507.76291	-706.43042	350.47882	535.92114	-684.46527	329.87128	244.46939	-565.87231	368.24884	227.75885	-594.03461	339.2341	178.67992	-560.29663	279.30457	68.076874	-587.30151	334.80975	70.005791	-538.62219	343.25266	30.550978	-587.91412	183.16249	45.225582	-474.20645	245.45149	25.25565	-424.38062	201.1761	40.807987	-444.37851	389.07297	575.284	-1296.708	338.8782	543.21112	-1327.7614	375.45517	512.5896	-1308.7336	334.90228	279.12527	-1425.4347	346.45825	214.59799	-1424.4878	372.71259	267.65231	-1395.5607	349.34448	71.590683	-1439.2498	278.48331	69.65506	-1406.9026	352.70264	30.240246	-1386.2719	274.22943	26.530647	-1559.8447	213.73853	37.374111	-1528.1797	236.26041	34.317703	-1549.4856	319.73734	973.96979	-759.80573	270.20776	976.71918	-764.05621	273.03769	1038.3925	-766.81287	251.02481	650.92969	-725.23517	199.48891	652.99609	-1269.9724	202.01598	569.53833	-1208.7483	202.09387	646.76672	-1207.2026	221.81566	1054.5625	-1218.608	224.47655	994.16797	-1232.8855	269.94852	1058.7405	-1229.0635
1462	7.3	69.376961	1444.16	-986.79797	89.585182	1429.8457	-926.39502	108.33368	1416.6393	-1057.0444	224.13214	572.9668	-2098.5803	280.73914	568.5694	121.15455	483.41815	868.45483	-1041.0787	485.24286	866.612	-968.72357	477.12592	878.87	-1003.6664	283.43933	1267.6226	-986.94757	177.08594	1148.1545	-986.70715	419.44974	1031.828	-1002.6431	171.42087	1167.373	-1144.8033	214.48232	1173.5247	-817.72394	394.21997	569.81769	-717.59399	385.07162	507.55716	-706.24072	350.3573	535.83209	-684.41559	330.22659	245.17509	-564.99768	368.21124	227.85712	-593.81708	339.21637	178.69997	-560.13458	279.33023	68.082703	-587.32129	334.80914	69.990807	-538.64008	343.22812	30.56249	-587.93079	183.15402	45.209057	-474.20291	245.47041	25.255484	-424.37277	201.16537	40.798855	-444.37643	389.40601	575.36902	-1297.5618	339.17819	543.52856	-1328.712	375.56442	512.60358	-1309.9681	334.49362	279.10574	-1425.7543	346.27127	214.65048	-1424.7498	372.49527	267.76221	-1395.9467	349.23361	71.603592	-1439.1637	278.44913	69.633438	-1406.8774	352.72571	30.216734	-1386.2733	274.20065	26.510843	-1559.8279	213.73492	37.333504	-1528.1716	236.25774	34.352772	-1549.4799	319.3833	973.22797	-759.86487	269.83698	975.88861	-763.94019	272.58386	1037.6652	-766.70697	251.65439	650.01617	-725.24335	199.19788	651.95355	-1269.9078	201.75127	568.61365	-1208.5841	201.65419	645.8999	-1207.0515	221.15501	1053.5863	-1218.4478	223.93172	993.1748	-1232.7251	269.07748	1058.0491	-1228.9093
1463	7.305	68.461853	1443.283	-986.53284	88.743317	1428.9677	-926.09521	107.2915	1415.7354	-1056.7922	223.93466	571.97382	-2098.6479	280.50485	567.73291	121.24446	483.47791	868.35504	-1041.137	485.53702	866.63794	-968.638	477.24084	878.57916	-1003.8103	282.46777	1266.36	-987.01703	176.38814	1147.1392	-986.56079	419.03564	1031.5031	-1002.6636	170.56369	1166.3422	-1144.5872	213.8643	1172.4082	-817.60669	394.35666	569.62964	-717.43909	384.96936	507.40851	-706.03583	349.19531	535.55261	-684.73529	330.19211	245.18166	-564.74878	368.24774	227.85815	-593.52203	339.21524	178.71411	-559.97833	279.3418	68.089256	-587.3092	334.81519	69.997498	-538.63562	343.26077	30.561897	-587.91827	183.17644	45.193943	-474.19135	245.46782	25.226372	-424.36356	201.15594	40.757153	-444.36957	389.42139	575.05249	-1297.9314	339.15536	543.49628	-1329.1492	375.25104	512.27277	-1309.6644	334.54645	278.48648	-1425.9661	346.03308	214.72952	-1424.9866	372.31174	267.90085	-1396.3156	349.13968	71.624695	-1439.1256	278.44653	69.552086	-1406.8466	352.72739	30.200262	-1386.2668	274.18594	26.511204	-1559.8169	213.68425	37.363491	-1528.1603	236.24608	34.335251	-1549.4713	319.01071	972.44391	-759.86945	269.46945	975.09601	-763.77283	272.15729	1036.7739	-766.56116	251.94371	649.13055	-725.21149	198.91991	651.44427	-1269.6881	201.58714	567.60022	-1208.5201	201.38132	644.98486	-1206.9572	220.42377	1052.6476	-1218.2593	223.31113	992.2406	-1232.5728	268.4458	1057.0792	-1228.8075
1464	7.31	67.533737	1442.3746	-986.26373	87.804169	1428.0027	-925.89124	106.23979	1414.83	-1056.5569	223.50298	571.07184	-2100.145	280.27689	566.89587	121.35605	483.52264	868.16064	-1041.2372	485.65576	866.33746	-968.74371	477.3681	878.20874	-1003.9513	281.47064	1265.509	-986.94037	175.68481	1146.0859	-986.39252	418.65402	1031.1212	-1002.6643	169.69415	1165.2106	-1144.4402	213.03603	1171.5001	-817.56738	394.46075	569.5506	-717.27094	384.88937	507.37613	-705.73865	349.2399	535.58734	-684.48059	330.07693	245.23293	-564.46729	368.22571	227.93335	-593.2226	339.16605	178.74568	-559.77924	279.37634	68.112259	-587.29907	334.81418	70.002823	-538.62445	343.24988	30.581472	-587.92297	183.16341	45.179691	-474.19141	245.46156	25.204865	-424.33994	201.18083	40.727066	-444.36319	389.40805	575.18298	-1298.5006	339.05966	543.89062	-1329.6566	374.94708	512.36835	-1310.1453	334.49619	279.59488	-1426.6982	345.7966	214.88802	-1425.2626	372.03214	268.07455	-1396.6613	349.02954	71.614159	-1439.0496	278.41003	69.512299	-1406.8164	352.74402	30.18483	-1386.2892	274.17728	26.492212	-1559.8114	213.68068	37.374653	-1528.1674	236.18916	34.230579	-1549.472	318.58121	971.66772	-759.81238	269.03345	974.23718	-763.6283	271.65521	1035.929	-766.46265	252.23451	648.19019	-725.14166	198.48407	650.03351	-1269.6329	201.33699	566.68622	-1208.3535	201.10085	643.87823	-1206.8881	219.74815	1051.6257	-1218.0847	222.7095	991.24402	-1232.4456	267.79111	1056.0892	-1228.5896
1465	7.315	66.595879	1441.4373	-986.06024	86.955246	1427.1017	-925.60498	105.30554	1413.8577	-1056.3473	223.37997	569.4632	-2098.6443	280.02628	566.10956	121.47065	483.59979	867.82434	-1041.3362	485.67484	866.12537	-968.83679	477.4249	877.91681	-1004.076	280.44855	1264.6752	-986.87915	174.93637	1144.9565	-986.32098	418.2998	1030.6974	-1002.6798	168.74049	1164.2501	-1144.0247	212.306	1170.5092	-817.46075	394.4924	569.48236	-717.01447	384.9845	507.30853	-705.32184	349.24631	535.69281	-684.17993	329.46317	244.62611	-564.81909	368.16333	228.03351	-592.87439	339.08469	178.78688	-559.55725	279.38303	68.100143	-587.27142	334.81696	69.995407	-538.61523	343.2673	30.57719	-587.91302	183.17439	45.173222	-474.16873	245.45055	25.148548	-424.328	201.17769	40.727383	-444.35184	389.46548	575.31268	-1299.2758	339.15967	544.10193	-1330.5089	374.95615	512.38043	-1311.4609	334.22739	279.56299	-1427.0691	345.56708	214.9697	-1425.5725	371.82526	268.15308	-1397.2142	348.93979	71.65451	-1438.9989	278.366	69.498329	-1406.822	352.75543	30.190666	-1386.2828	274.17133	26.491285	-1559.8079	213.64587	37.371361	-1528.1482	236.17247	34.262337	-1549.4749	318.05887	970.88617	-759.71619	268.49554	973.36035	-763.52295	271.01669	1035.0641	-766.35785	252.41267	647.18719	-725.03589	198.08989	649.16766	-1269.5236	201.11792	565.63446	-1208.2434	201.37393	642.29028	-1207.0339	219.02948	1050.6449	-1217.9237	222.0114	990.31171	-1232.277	267.12061	1055.0919	-1228.3888
1466	7.32	65.656975	1440.5968	-985.76245	86.057823	1426.1362	-925.35474	104.22044	1412.9569	-1056.178	223.04916	568.63025	-2098.7295	279.77692	565.27045	121.59792	483.65808	867.54095	-1041.3899	485.69977	865.89758	-968.90515	477.43921	877.66248	-1004.1508	279.39783	1264.2966	-986.55164	174.25618	1143.9279	-986.19238	417.94788	1030.3777	-1002.691	167.90128	1163.0619	-1143.9114	211.61128	1169.5814	-817.37012	394.59885	569.55823	-716.69775	385.52289	507.13287	-704.40625	349.23154	535.85596	-683.81317	329.2565	244.7027	-564.51697	368.04395	228.17424	-592.52081	338.92633	178.82376	-559.29724	279.42007	68.124367	-587.23273	334.82574	70.00415	-538.60077	343.23853	30.635397	-587.88568	183.15868	45.172417	-474.15854	245.45145	25.139328	-424.30469	201.15167	40.665863	-444.35574	388.66251	575.2724	-1299.3865	338.58023	543.80682	-1330.5911	374.48648	512.18549	-1311.2751	333.29709	279.18192	-1427.2194	345.43417	214.97009	-1425.9227	371.68329	268.30661	-1397.6816	348.89789	71.540726	-1439.0226	278.35159	69.462563	-1406.7866	352.73233	30.202549	-1386.2905	274.17142	26.482897	-1559.8091	213.6039	37.39069	-1528.15	236.15852	34.241261	-1549.4907	317.46149	970.05261	-759.61639	267.94449	972.59668	-763.36285	270.4335	1034.2241	-766.27557	251.77315	646.38538	-724.8595	197.83745	648.03748	-1269.4229	200.91507	564.55872	-1208.2335	201.01979	641.25403	-1206.9178	218.31212	1049.6298	-1217.7242	221.4384	989.23456	-1232.1526	266.33527	1054.2935	-1228.1133
1467	7.325	64.717636	1439.6387	-985.55762	85.067467	1425.2618	-925.1499	103.23434	1412.0331	-1055.9194	222.97061	568.54858	-2098.1477	279.51111	564.49109	121.70621	483.72287	867.14081	-1041.5111	485.73444	865.67596	-968.97571	477.45206	877.38208	-1004.2342	278.30533	1263.5792	-986.4743	173.55914	1142.8364	-986.06317	417.60211	1029.9377	-1002.7348	167.01851	1161.8624	-1143.7128	210.75923	1168.5757	-817.48083	394.62497	569.64374	-716.35126	384.93161	507.53384	-704.38367	348.65146	535.22583	-683.55133	329.60995	245.42039	-563.52338	367.94867	228.28296	-592.17542	338.86438	178.87431	-559.03503	279.44611	68.139832	-587.21637	334.84283	69.985062	-538.59576	343.21634	30.67696	-587.89453	183.17043	45.17345	-474.14499	245.43956	25.145304	-424.26486	201.1468	40.675083	-444.32895	389.26825	575.12103	-1300.0553	338.9249	544.27197	-1331.2034	374.36401	512.06561	-1311.8386	333.09915	279.19022	-1427.6554	345.21222	215.06	-1426.2173	371.45581	268.47263	-1398.0994	348.86905	71.452332	-1439.0563	278.37704	69.709892	-1406.6779	352.73965	30.210955	-1386.2787	274.16388	26.477949	-1559.8103	213.58475	37.378464	-1528.1482	236.13744	34.215019	-1549.5046	316.78818	969.24945	-759.43164	267.25699	971.74353	-763.29932	269.78653	1033.4243	-766.19135	250.92297	645.63477	-724.73883	197.61465	647.40417	-1269.2203	200.6259	563.63159	-1208.0444	200.37402	640.71069	-1206.6243	217.66701	1048.5574	-1217.5945	220.75777	988.27704	-1231.9469	265.75287	1053.0763	-1227.9441
